<svg xmlns="http://www.w3.org/2000/svg" width="600" height="600" fill="none" viewBox="0 0 600 600"><rect width="600" height="600" fill="#000"/><path fill="#fff" d="M176.04 397C174.162 397 172.473 396.347 170.971 395.04C169.657 393.733 169 392.053 169 390V208C169 205.947 169.657 204.267 170.971 202.96C172.473 201.653 174.162 201 176.04 201H202.228C205.044 201 207.109 201.747 208.423 203.24C209.924 204.733 210.957 205.853 211.52 206.6L263.333 301.52L315.709 206.6C316.084 205.853 316.929 204.733 318.243 203.24C319.745 201.747 321.904 201 324.719 201H350.907C352.972 201 354.662 201.653 355.976 202.96C357.29 204.267 357.947 205.947 357.947 208V390C357.947 392.053 357.29 393.733 355.976 395.04C354.662 396.347 352.972 397 350.907 397H322.185C320.308 397 318.712 396.347 317.398 395.04C316.084 393.733 315.427 392.053 315.427 390V276.88L279.665 343.52C278.726 345.2 277.506 346.693 276.004 348C274.503 349.307 272.531 349.96 270.091 349.96H256.856C254.416 349.96 252.445 349.307 250.943 348C249.441 346.693 248.221 345.2 247.282 343.52L211.52 276.88V390C211.52 392.053 210.863 393.733 209.549 395.04C208.235 396.347 206.639 397 204.762 397H176.04Z"/><path fill="#fff" d="M392.422 397C390.357 397 388.668 396.347 387.354 395.04C386.039 393.733 385.382 392.053 385.382 390V358.64C385.382 356.587 386.039 354.907 387.354 353.6C388.668 352.293 390.357 351.64 392.422 351.64H423.96C426.025 351.64 427.715 352.293 429.029 353.6C430.343 354.907 431 356.587 431 358.64V390C431 392.053 430.343 393.733 429.029 395.04C427.715 396.347 426.025 397 423.96 397H392.422Z"/></svg>